#N canvas 1011 91 613 631 10;
#X declare -lib mrpeach;
#X declare -lib mrpeach;
#X msg -330 -206 close;
#X msg -165 -121 pinMode 9 pwm;
#X obj -495 -77 receive green;
#X obj -489 -39 receive blue;
#X obj -489 -118 receive red;
#X obj -107 -260 bng 40 250 50 0 empty empty empty 17 7 0 10 -4032
-1 -1;
#X obj -107 -210 send in;
#X obj -221 -211 receive in;
#N canvas 50 318 968 563 lights 1;
#N canvas 72 104 423 503 analog 0;
#X obj 38 10 inlet;
#X obj 131 10 inlet;
#X obj 38 259 pack float float;
#X obj 192 113 route float symbol;
#X obj 188 259 pack float symbol;
#X text 78 11 pin#;
#X text 179 10 PWM value or "off";
#X obj 39 217 cyclone/gate 2;
#X msg 191 153 1;
#X msg 252 153 2;
#X obj 131 34 list;
#X obj 131 113 float;
#X obj 131 67 trigger bang anything;
#X obj 37 427 outlet;
#X obj 37 356 trigger bang anything;
#X obj 179 376 list;
#X msg 179 396 set \$1 \$2 \$3;
#X msg 37 308 analog \$1 \$2;
#X connect 0 0 11 0;
#X connect 1 0 10 0;
#X connect 2 0 17 0;
#X connect 3 0 8 0;
#X connect 3 0 2 1;
#X connect 3 1 9 0;
#X connect 3 1 4 1;
#X connect 4 0 17 0;
#X connect 7 0 2 0;
#X connect 7 1 4 0;
#X connect 8 0 7 0;
#X connect 9 0 7 0;
#X connect 10 0 12 0;
#X connect 11 0 7 1;
#X connect 12 0 11 0;
#X connect 12 1 3 0;
#X connect 14 0 13 0;
#X connect 14 1 15 0;
#X connect 15 0 16 0;
#X connect 16 0 13 0;
#X connect 17 0 14 0;
#X restore 283 -86 pd analog;
#X msg 283 -61 analog 3 1;
#X obj 334 -281 vsl 15 128 0 1 0 0 empty empty empty 0 -9 0 10 -4034
-1 -1 12700 1;
#X obj 283 -38 send green;
#X msg 253 -104 3;
#N canvas 72 104 423 503 analog 0;
#X obj 38 10 inlet;
#X obj 131 10 inlet;
#X obj 38 259 pack float float;
#X obj 192 113 route float symbol;
#X obj 188 259 pack float symbol;
#X text 78 11 pin#;
#X text 179 10 PWM value or "off";
#X obj 39 217 cyclone/gate 2;
#X msg 191 153 1;
#X msg 252 153 2;
#X obj 131 34 list;
#X obj 131 113 float;
#X obj 131 67 trigger bang anything;
#X obj 37 427 outlet;
#X obj 37 356 trigger bang anything;
#X obj 179 376 list;
#X msg 179 396 set \$1 \$2 \$3;
#X msg 37 308 analog \$1 \$2;
#X connect 0 0 11 0;
#X connect 1 0 10 0;
#X connect 2 0 17 0;
#X connect 3 0 8 0;
#X connect 3 0 2 1;
#X connect 3 1 9 0;
#X connect 3 1 4 1;
#X connect 4 0 17 0;
#X connect 7 0 2 0;
#X connect 7 1 4 0;
#X connect 8 0 7 0;
#X connect 9 0 7 0;
#X connect 10 0 12 0;
#X connect 11 0 7 1;
#X connect 12 0 11 0;
#X connect 12 1 3 0;
#X connect 14 0 13 0;
#X connect 14 1 15 0;
#X connect 15 0 16 0;
#X connect 16 0 13 0;
#X connect 17 0 14 0;
#X restore 542 -93 pd analog;
#X msg 542 -69 analog 6 0.173228;
#X obj 593 -290 vsl 15 128 0 1 0 0 empty empty empty 0 -9 0 10 -4160
-1 -1 12700 1;
#X msg 542 -115 6;
#X obj 542 -45 send blue;
#N canvas 72 104 423 503 analog 0;
#X obj 38 10 inlet;
#X obj 131 10 inlet;
#X obj 38 259 pack float float;
#X obj 192 113 route float symbol;
#X obj 188 259 pack float symbol;
#X text 78 11 pin#;
#X text 179 10 PWM value or "off";
#X obj 39 217 cyclone/gate 2;
#X msg 191 153 1;
#X msg 252 153 2;
#X obj 131 34 list;
#X obj 131 113 float;
#X obj 131 67 trigger bang anything;
#X obj 37 427 outlet;
#X obj 37 356 trigger bang anything;
#X obj 179 376 list;
#X msg 179 396 set \$1 \$2 \$3;
#X msg 37 308 analog \$1 \$2;
#X connect 0 0 11 0;
#X connect 1 0 10 0;
#X connect 2 0 17 0;
#X connect 3 0 8 0;
#X connect 3 0 2 1;
#X connect 3 1 9 0;
#X connect 3 1 4 1;
#X connect 4 0 17 0;
#X connect 7 0 2 0;
#X connect 7 1 4 0;
#X connect 8 0 7 0;
#X connect 9 0 7 0;
#X connect 10 0 12 0;
#X connect 11 0 7 1;
#X connect 12 0 11 0;
#X connect 12 1 3 0;
#X connect 14 0 13 0;
#X connect 14 1 15 0;
#X connect 15 0 16 0;
#X connect 16 0 13 0;
#X connect 17 0 14 0;
#X restore 69 -51 pd analog;
#X msg 69 -26 analog 9 0.188976;
#X obj 119 -257 vsl 15 128 0 1 0 0 empty empty empty 0 -9 0 10 -258113
-1 -1 12700 1;
#X msg 67 -77 9;
#X obj 69 -2 send red;
#X obj 535 -156 send bin;
#X obj 248 -152 send gin;
#X floatatom 335 -417 5 0 0 0 - - -;
#X obj 24 -98 receive in;
#X obj 245 -128 receive in;
#X obj 520 -136 receive in;
#X obj 59 -116 send rin;
#N canvas 619 437 355 162 colwin 0;
#N canvas 2157 281 395 296 colowindow 0;
#X obj -699 148 gemwin;
#X msg -700 66 create;
#X msg -641 85 destroy;
#X msg -690 111 1;
#X msg -641 115 0;
#X obj -576 82 gemhead;
#X obj -576 147 colorRGB;
#X obj -565 109 inlet;
#X obj -511 100 inlet;
#X obj -486 122 inlet;
#X obj -627 37 bng 15 250 50 0 empty empty empty 17 7 0 10 -262144
-1 -1;
#X obj -427 38 inlet;
#X obj -576 201 square 4;
#X connect 1 0 0 0;
#X connect 2 0 0 0;
#X connect 3 0 0 0;
#X connect 4 0 0 0;
#X connect 5 0 6 0;
#X connect 6 0 12 0;
#X connect 7 0 6 1;
#X connect 8 0 6 2;
#X connect 9 0 6 3;
#X connect 10 0 1 0;
#X connect 10 0 3 0;
#X connect 11 0 10 0;
#X restore 108 106 pd colowindow;
#X obj 197 5 receive bin;
#X obj 110 15 receive gin;
#X obj 12 21 receive rin;
#X obj 206 78 receive in;
#X connect 1 0 0 2;
#X connect 2 0 0 1;
#X connect 3 0 0 0;
#X connect 4 0 0 3;
#X restore 809 -60 pd colwin;
#X obj 199 -339 vradio 15 1 0 5 empty empty empty 0 -8 0 10 -262144
-1 -1 3;
#X obj 719 -413 vradio 15 1 0 5 empty empty empty 0 -8 0 10 -262144
-1 -1 3;
#X text 218 -338 autolight;
#X text 215 -325 reactive;
#X obj 450 -368 vradio 15 1 0 5 empty empty empty 0 -8 0 10 -262144
-1 -1 3;
#X obj 199 -369 receive option;
#X obj 460 -395 receive option;
#X obj 719 -441 receive option;
#X obj 845 -331 send option;
#N canvas 552 176 283 285 sinenum 0;
#X obj 20 -344 osc~;
#X obj 19 -299 +~ 0.5;
#X obj 20 -323 *~ 0.5;
#X obj 19 -273 snapshot~;
#X obj 90 -313 tgl 15 0 empty empty empty 17 7 0 10 -262144 -1 -1 0
1;
#X obj 23 -365 hsl 128 15 0 1 0 0 empty empty empty -2 -8 0 10 -262144
-1 -1 483 1;
#X obj 89 -293 metro 50;
#X obj 89 -338 receive in;
#X obj 20 -410 receive in;
#X msg 20 -384 0.038;
#X obj 108 -396 inlet;
#X obj 19 -233 outlet;
#X floatatom 88 -234 5 0 0 0 - - -;
#X connect 0 0 2 0;
#X connect 1 0 3 0;
#X connect 2 0 1 0;
#X connect 3 0 11 0;
#X connect 3 0 12 0;
#X connect 4 0 6 0;
#X connect 5 0 0 0;
#X connect 6 0 3 0;
#X connect 7 0 4 0;
#X connect 8 0 9 0;
#X connect 9 0 5 0;
#X connect 10 0 5 0;
#X restore 335 -442 pd sinenum;
#X obj 338 -468 hsl 128 15 0 1 0 0 empty empty empty -2 -8 0 10 -262144
-1 -1 0 1;
#X floatatom 593 -427 5 0 0 0 - - -;
#N canvas 548 102 450 300 sinenum 0;
#X obj 20 -344 osc~;
#X obj 19 -299 +~ 0.5;
#X obj 20 -323 *~ 0.5;
#X obj 19 -273 snapshot~;
#X obj 90 -313 tgl 15 0 empty empty empty 17 7 0 10 -262144 -1 -1 0
1;
#X obj 23 -365 hsl 128 15 0 1 0 0 empty empty empty -2 -8 0 10 -262144
-1 -1 483 1;
#X obj 89 -293 metro 50;
#X obj 89 -338 receive in;
#X obj 20 -410 receive in;
#X msg 20 -384 0.038;
#X obj 108 -396 inlet;
#X obj 19 -233 outlet;
#X floatatom 88 -234 5 0 0 0 - - -;
#X connect 0 0 2 0;
#X connect 1 0 3 0;
#X connect 2 0 1 0;
#X connect 3 0 11 0;
#X connect 3 0 12 0;
#X connect 4 0 6 0;
#X connect 5 0 0 0;
#X connect 6 0 3 0;
#X connect 7 0 4 0;
#X connect 8 0 9 0;
#X connect 9 0 5 0;
#X connect 10 0 5 0;
#X restore 592 -453 pd sinenum;
#X obj 595 -479 hsl 128 15 0 1 0 0 empty empty empty -2 -8 0 10 -262144
-1 -1 0 1;
#X floatatom 64 -413 5 0 0 0 - - -;
#N canvas 542 117 420 220 sinenum 0;
#X obj 20 -344 osc~;
#X obj 19 -299 +~ 0.5;
#X obj 20 -323 *~ 0.5;
#X obj 19 -273 snapshot~;
#X obj 90 -313 tgl 15 0 empty empty empty 17 7 0 10 -262144 -1 -1 0
1;
#X obj 23 -365 hsl 128 15 0 1 0 0 empty empty empty -2 -8 0 10 -262144
-1 -1 483 1;
#X obj 89 -293 metro 50;
#X obj 89 -338 receive in;
#X obj 20 -410 receive in;
#X msg 20 -384 0.038;
#X obj 108 -396 inlet;
#X obj 19 -233 outlet;
#X floatatom 88 -234 5 0 0 0 - - -;
#X connect 0 0 2 0;
#X connect 1 0 3 0;
#X connect 2 0 1 0;
#X connect 3 0 11 0;
#X connect 3 0 12 0;
#X connect 4 0 6 0;
#X connect 5 0 0 0;
#X connect 6 0 3 0;
#X connect 7 0 4 0;
#X connect 8 0 9 0;
#X connect 9 0 5 0;
#X connect 10 0 5 0;
#X restore 64 -437 pd sinenum;
#X obj 67 -462 hsl 128 15 0 1 0 0 empty empty empty -2 -8 0 10 -262144
-1 -1 0 1;
#X text 218 -294 drag;
#X text 470 -370 autolight;
#X text 467 -357 reactive;
#X text 470 -326 drag;
#X obj 350 -394 receive vol;
#X obj 79 -388 receive volh;
#X obj 608 -388 receive volm;
#X text 227 -275 kinect;
#X obj 335 -121 / 1;
#X obj 119 -116 / 1;
#X obj 593 -157 / 1;
#X obj 98 -504 import mrpeach;
#X obj 805 -227 unpackOSC;
#X obj 803 -96 s rske;
#X obj 805 -169 routeOSC /red /green /blue;
#X obj 856 -98 s gske;
#X obj 907 -101 s bske;
#X text 216 -309 comment;
#X obj 64 -288 mux 0 1 2 3 4;
#X obj 335 -307 mux 0 1 2 3 4;
#X obj 593 -321 mux 0 1 2 3 4;
#X text 217 -310 leap;
#X obj 845 -493 vradio 30 1 0 5 empty empty empty 0 -8 0 10 -232576
-1 -1 3;
#X text 880 -482 autolight;
#X text 875 -458 reactive;
#X text 882 -399 drag;
#X text 876 -372 kinect;
#X text 879 -430 leap;
#X obj 94 -366 receive rske;
#X obj 365 -370 receive gske;
#X obj 623 -356 receive bske;
#X obj 805 -258 udpreceive 9434;
#X obj 805 -201 routeOSC /bgrgb;
#X text 468 -341 leap;
#X obj 801 -131 / 255;
#X obj 862 -131 / 255;
#X obj 909 -135 / 255;
#X obj 189 -246 vsl 15 128 0 1 0 0 empty empty empty 0 -9 0 10 -262144
-1 -1 2400 1;
#X obj 174 -96 *;
#X floatatom 185 -95 5 0 0 0 - - -;
#X obj 616 -127 *;
#X obj 648 -288 vsl 15 128 0 1 0 0 empty empty empty 0 -9 0 10 -262144
-1 -1 2200 1;
#X floatatom 628 -126 5 0 0 0 - - -;
#X connect 0 0 1 0;
#X connect 1 0 3 0;
#X connect 2 0 16 0;
#X connect 2 0 48 0;
#X connect 4 0 0 0;
#X connect 5 0 6 0;
#X connect 6 0 9 0;
#X connect 7 0 15 0;
#X connect 7 0 50 0;
#X connect 8 0 5 0;
#X connect 10 0 11 0;
#X connect 11 0 14 0;
#X connect 12 0 21 0;
#X connect 12 0 49 0;
#X connect 13 0 10 0;
#X connect 17 0 59 0;
#X connect 18 0 13 0;
#X connect 19 0 4 0;
#X connect 20 0 8 0;
#X connect 23 0 58 5;
#X connect 24 0 60 5;
#X connect 27 0 59 5;
#X connect 28 0 23 0;
#X connect 29 0 27 0;
#X connect 30 0 24 0;
#X connect 32 0 17 0;
#X connect 33 0 32 0;
#X connect 34 0 60 0;
#X connect 35 0 34 0;
#X connect 36 0 35 0;
#X connect 37 0 58 0;
#X connect 38 0 37 0;
#X connect 39 0 38 0;
#X connect 44 0 59 1;
#X connect 45 0 58 1;
#X connect 46 0 60 1;
#X connect 48 0 0 1;
#X connect 49 0 78 0;
#X connect 50 0 80 0;
#X connect 52 0 72 0;
#X connect 54 0 74 0;
#X connect 54 1 75 0;
#X connect 54 2 76 0;
#X connect 58 0 12 0;
#X connect 59 0 2 0;
#X connect 60 0 7 0;
#X connect 62 0 31 0;
#X connect 68 0 58 2;
#X connect 69 0 59 2;
#X connect 70 0 60 2;
#X connect 71 0 52 0;
#X connect 72 0 54 0;
#X connect 74 0 53 0;
#X connect 75 0 55 0;
#X connect 76 0 56 0;
#X connect 77 0 78 1;
#X connect 77 0 79 0;
#X connect 78 0 10 1;
#X connect 80 0 5 1;
#X connect 81 0 80 1;
#X connect 81 0 82 0;
#X restore -71 -165 pd lights;
#X msg -166 -85 pinMode 3 pwm;
#X msg -166 -50 pinMode 6 pwm;
#X text -292 -215 comment;
#X obj -467 -221 receive in;
#X obj -357 41 arduino 0;
#N canvas 521 278 747 361 reactive 0;
#X floatatom 40 228 5 0 0 0 - - -;
#X obj 41 293 send vol;
#X obj 123 81 hsl 128 15 0 400 0 0 empty empty empty -2 -8 0 10 -262144
-1 -1 4445 1;
#X floatatom 129 129 5 0 0 0 - - -;
#X obj 38 58 adc~;
#X obj 40 193 env~;
#X floatatom 100 242 5 0 0 0 - - -;
#X floatatom 118 294 5 0 0 0 - - -;
#X obj 41 261 * 1e-008;
#X obj 111 204 expr pow($f1 \, 4);
#X obj 39 93 lop~;
#X obj 40 130 lop~;
#X obj 39 161 lop~;
#X obj 120 16 receive in;
#X msg 120 55 140;
#X floatatom 272 219 5 0 0 0 - - -;
#X obj 355 72 hsl 128 15 1000 6000 0 0 empty empty empty -2 -8 0 10
-262144 -1 -1 3048 1;
#X floatatom 361 120 5 0 0 0 - - -;
#X obj 270 49 adc~;
#X obj 272 184 env~;
#X floatatom 332 233 5 0 0 0 - - -;
#X floatatom 350 285 5 0 0 0 - - -;
#X obj 273 252 * 1e-008;
#X obj 343 195 expr pow($f1 \, 4);
#X obj 352 9 receive in;
#X obj 273 284 send volh;
#X obj 271 84 hip~;
#X obj 272 121 hip~;
#X floatatom 502 219 5 0 0 0 - - -;
#X obj 599 55 hsl 128 15 220 880 0 0 empty empty empty -2 -8 0 10 -262144
-1 -1 7312 1;
#X floatatom 591 120 5 0 0 0 - - -;
#X obj 500 49 adc~;
#X obj 502 184 env~;
#X floatatom 562 233 5 0 0 0 - - -;
#X floatatom 580 285 5 0 0 0 - - -;
#X obj 503 252 * 1e-008;
#X obj 574 194 expr pow($f1 \, 4);
#X obj 582 9 receive in;
#X obj 503 284 send volm;
#X obj 501 101 bp~;
#X floatatom 546 113 5 0 0 0 - - -;
#X obj 271 152 hp4_butt~;
#X msg 586 32 600;
#X msg 352 47 2200;
#X obj 425 287 dac~;
#N canvas 1095 297 450 300 ghettobpf 0;
#X obj 39 46 lp4_butt~;
#X obj 172 17 inlet;
#X obj 39 12 inlet~;
#X obj 40 84 lp4_butt~;
#X obj 37 125 hp4_butt~;
#X obj 38 156 hp4_butt~;
#X obj 225 21 inlet;
#X obj 143 55 +;
#X obj 147 116 -;
#X obj 38 196 outlet~;
#X connect 0 0 3 0;
#X connect 1 0 7 0;
#X connect 1 0 8 0;
#X connect 2 0 0 0;
#X connect 3 0 4 0;
#X connect 4 0 5 0;
#X connect 5 0 9 0;
#X connect 6 0 7 1;
#X connect 6 0 8 1;
#X connect 7 0 0 1;
#X connect 7 0 3 1;
#X connect 8 0 4 1;
#X connect 8 0 5 1;
#X restore 587 158 pd ghettobpf;
#X obj 501 143 bp~;
#X msg 546 52 3.6;
#X msg 161 56 90;
#X msg 636 97 60;
#X msg 400 46 1000;
#X obj 677 289 bng 15 250 50 0 empty empty empty 17 7 0 10 -262144
-1 -1;
#X obj 677 315 send piano;
#X obj 432 16 receive piano;
#X obj 642 77 receive piano;
#X obj 183 36 receive piano;
#X connect 0 0 9 0;
#X connect 2 0 3 0;
#X connect 2 0 10 1;
#X connect 2 0 11 1;
#X connect 2 0 12 1;
#X connect 4 0 10 0;
#X connect 4 1 10 0;
#X connect 5 0 0 0;
#X connect 6 0 8 0;
#X connect 8 0 1 0;
#X connect 8 0 7 0;
#X connect 9 0 6 0;
#X connect 10 0 11 0;
#X connect 11 0 12 0;
#X connect 12 0 5 0;
#X connect 13 0 14 0;
#X connect 14 0 2 0;
#X connect 15 0 23 0;
#X connect 16 0 17 0;
#X connect 16 0 26 1;
#X connect 16 0 27 1;
#X connect 16 0 41 1;
#X connect 18 0 26 0;
#X connect 18 1 26 0;
#X connect 19 0 15 0;
#X connect 20 0 22 0;
#X connect 22 0 21 0;
#X connect 22 0 25 0;
#X connect 23 0 20 0;
#X connect 24 0 43 0;
#X connect 26 0 27 0;
#X connect 27 0 41 0;
#X connect 28 0 36 0;
#X connect 29 0 30 0;
#X connect 29 0 39 1;
#X connect 29 0 46 1;
#X connect 31 0 39 0;
#X connect 31 1 39 0;
#X connect 32 0 28 0;
#X connect 33 0 35 0;
#X connect 35 0 34 0;
#X connect 35 0 38 0;
#X connect 36 0 33 0;
#X connect 37 0 42 0;
#X connect 37 0 47 0;
#X connect 39 0 46 0;
#X connect 40 0 39 2;
#X connect 40 0 46 2;
#X connect 41 0 19 0;
#X connect 42 0 29 0;
#X connect 43 0 16 0;
#X connect 46 0 32 0;
#X connect 47 0 40 0;
#X connect 48 0 2 0;
#X connect 49 0 40 0;
#X connect 50 0 16 0;
#X connect 51 0 52 0;
#X connect 53 0 50 0;
#X connect 54 0 49 0;
#X connect 55 0 48 0;
#X restore -44 -110 pd reactive;
#X obj -239 -192 bng 15 250 50 0 empty empty empty 17 7 0 10 -262144
-1 -1;
#X obj -235 -132 bng 15 250 50 0 empty empty empty 17 7 0 10 -262144
-1 -1;
#X obj -221 -173 delay 2000;
#X floatatom -456 155 5 0 0 3 a0 - -;
#X floatatom -410 155 5 0 0 3 a1 - -;
#X floatatom -364 155 5 0 0 3 a2 - -;
#X floatatom -318 155 5 0 0 3 a3 - -;
#X floatatom -272 155 5 0 0 3 a4 - -;
#X floatatom -226 155 5 0 0 3 a5 - -;
#X floatatom -180 155 5 0 0 3 a6 - -;
#X floatatom -134 155 5 0 0 3 a7 - -;
#X obj -357 98 route 0 1 2 3 4 5 6 7;
#N canvas 981 48 499 396 display 0;
#X obj 6 7 inlet;
#X obj 6 28 mapping/resample 100;
#X obj 6 50 outlet;
#X obj 54 50 inlet;
#X obj 54 71 mapping/resample 100;
#X obj 54 93 outlet;
#X obj 103 93 inlet;
#X obj 103 114 mapping/resample 100;
#X obj 103 136 outlet;
#X obj 151 136 inlet;
#X obj 151 157 mapping/resample 100;
#X obj 151 179 outlet;
#X obj 200 179 inlet;
#X obj 200 200 mapping/resample 100;
#X obj 200 222 outlet;
#X obj 247 222 inlet;
#X obj 247 243 mapping/resample 100;
#X obj 247 265 outlet;
#X obj 295 265 inlet;
#X obj 295 286 mapping/resample 100;
#X obj 295 308 outlet;
#X obj 345 308 inlet;
#X obj 345 329 mapping/resample 100;
#X obj 345 351 outlet;
#X obj 60 290 receive ARDUINO_TEST_RESET;
#X connect 0 0 1 0;
#X connect 1 0 2 0;
#X connect 3 0 4 0;
#X connect 4 0 5 0;
#X connect 6 0 7 0;
#X connect 7 0 8 0;
#X connect 9 0 10 0;
#X connect 10 0 11 0;
#X connect 12 0 13 0;
#X connect 13 0 14 0;
#X connect 15 0 16 0;
#X connect 16 0 17 0;
#X connect 18 0 19 0;
#X connect 19 0 20 0;
#X connect 21 0 22 0;
#X connect 22 0 23 0;
#X connect 24 0 22 0;
#X connect 24 0 19 0;
#X connect 24 0 16 0;
#X connect 24 0 13 0;
#X connect 24 0 10 0;
#X connect 24 0 7 0;
#X connect 24 0 4 0;
#X connect 24 0 1 0;
#X restore -433 129 pd display values without pegging the CPU;
#X text -469 98 analog inputs:;
#X obj -357 71 route analog digital string sysex;
#N canvas 50 102 450 300 old 0;
#X msg 95 138 digitalIns 0 0;
#X msg 88 77 analogIns 1 1;
#N canvas 162 133 610 460 serin 0;
#X obj 59 337 outlet;
#X obj 59 266 trigger bang anything;
#X obj 201 286 list;
#X obj 60 61 tgl 15 0 junk_to_hide_inlet ARDUINO_TEST_RESET 0 5 9 1
12 -262130 -1 -1 0 1;
#X obj 75 61 tgl 15 0 junk_to_hide_inlet ARDUINO_TEST_RESET 1 5 9 1
12 -262130 -1 -1 0 1;
#X obj 90 61 tgl 15 0 junk_to_hide_inlet ARDUINO_TEST_RESET 2 5 9 1
12 -262130 -1 -1 0 1;
#X obj 105 61 tgl 15 0 junk_to_hide_inlet ARDUINO_TEST_RESET 3 5 9
1 12 -262130 -1 -1 0 1;
#X obj 120 61 tgl 15 0 junk_to_hide_inlet ARDUINO_TEST_RESET 4 5 9
1 12 -262130 -1 -1 0 1;
#X obj 135 61 tgl 15 0 junk_to_hide_inlet ARDUINO_TEST_RESET 5 5 9
1 12 -262130 -1 -1 0 1;
#X obj 150 61 tgl 15 0 junk_to_hide_inlet ARDUINO_TEST_RESET 6 5 9
1 12 -262130 -1 -1 0 1;
#X obj 165 61 tgl 15 0 junk_to_hide_inlet ARDUINO_TEST_RESET 7 5 9
1 12 -262130 -1 -1 0 1;
#X msg 59 210 analogIns \$1 \$2;
#X msg 35 106 0 \$1;
#X msg 70 106 1 \$1;
#X msg 105 106 2 \$1;
#X msg 140 106 3 \$1;
#X msg 175 106 4 \$1;
#X msg 210 106 5 \$1;
#X msg 245 106 6 \$1;
#X msg 280 106 7 \$1;
#X msg 202 307 set \$1 \$2 \$3;
#X connect 1 0 0 0;
#X connect 1 1 2 0;
#X connect 2 0 20 0;
#X connect 3 0 12 0;
#X connect 4 0 13 0;
#X connect 5 0 14 0;
#X connect 6 0 15 0;
#X connect 7 0 16 0;
#X connect 8 0 17 0;
#X connect 9 0 18 0;
#X connect 10 0 19 0;
#X connect 11 0 1 0;
#X connect 12 0 11 0;
#X connect 13 0 11 0;
#X connect 14 0 11 0;
#X connect 15 0 11 0;
#X connect 16 0 11 0;
#X connect 17 0 11 0;
#X connect 18 0 11 0;
#X connect 19 0 11 0;
#X connect 20 0 0 0;
#X coords 0 -1 1 1 120 16 1 60 60;
#X restore 88 55 pd serin;
#X text 87 38 which analogIns to enable:;
#X text 94 101 which digital ports to enable:;
#N canvas 162 133 610 460 seri 0;
#X obj 59 337 outlet;
#X obj 59 266 trigger bang anything;
#X obj 201 286 list;
#X obj 60 61 tgl 15 0 junk_to_hide_inlet ARDUINO_TEST_RESET 0 5 9 1
12 -260736 -1 -1 0 1;
#X obj 75 61 tgl 15 0 junk_to_hide_inlet ARDUINO_TEST_RESET 1 5 9 1
12 -260736 -1 -1 0 1;
#X obj 90 61 tgl 15 0 junk_to_hide_inlet ARDUINO_TEST_RESET 2 5 9 1
12 -260736 -1 -1 0 1;
#X msg 35 106 0 \$1;
#X msg 70 106 1 \$1;
#X msg 105 106 2 \$1;
#X msg 202 307 set \$1 \$2 \$3;
#X msg 59 210 digitalIns \$1 \$2;
#X connect 1 0 0 0;
#X connect 1 1 2 0;
#X connect 2 0 9 0;
#X connect 3 0 6 0;
#X connect 4 0 7 0;
#X connect 5 0 8 0;
#X connect 6 0 10 0;
#X connect 7 0 10 0;
#X connect 8 0 10 0;
#X connect 9 0 0 0;
#X connect 10 0 1 0;
#X coords 0 -1 1 1 45 16 1 60 60;
#X restore 95 118 pd seri;
#X obj 42 179 outlet;
#X connect 0 0 6 0;
#X connect 1 0 6 0;
#X connect 2 0 1 0;
#X connect 5 0 0 0;
#X restore -225 10 pd old analog/digital controls;
#X obj -432 265 send pulse;
#X floatatom -406 239 5 0 0 0 - - -;
#X obj -432 219 * 1;
#X obj -432 186 - 0;
#N canvas 668 199 695 417 kinectin 0;
#X obj 171 -98 unpackOSC;
#X floatatom 103 -39 5 0 0 0 - - -;
#X obj 46 -156 import mrpeach;
#X obj 171 -130 udpreceive 32000;
#X floatatom 240 11 5 0 0 0 - - -;
#X obj 285 36 *~;
#X msg 483 120 100;
#X obj 337 -9 / 300;
#X obj 65 56 dac~;
#X msg 39 -38 627;
#X obj 173 -71 routeOSC /lhand /rhand /handspeed /lhandspeed /rhandspeed
;
#X obj 378 11 send lhs;
#X obj 445 10 send rhs;
#X floatatom 378 -36 5 0 0 0 - - -;
#X floatatom 445 -34 5 0 0 0 - - -;
#X obj 378 -12 / 100;
#X obj 465 -12 / 100;
#N canvas 915 304 450 300 square 0;
#N canvas 0 0 450 300 (subpatch) 0;
#X array waveform2 2051 float 2;
#X coords 0 1 2051 -1 200 140 1;
#X restore 303 138 graph;
#X msg 158 60 \; waveform2 sinesum 2051 1 0 0.333 0 0.2 0 0.142857
0 0.111111 0 0.0909091 0 0.0769231;
#X msg 162 116 \; waveform2 normalize 1;
#X obj 94 241 tabread4~ waveform2;
#X obj 94 176 phasor~;
#X obj 94 204 *~ 2051;
#X obj 94 280 outlet~;
#X obj 94 86 inlet;
#X connect 3 0 6 0;
#X connect 4 0 5 0;
#X connect 5 0 3 0;
#X connect 7 0 4 0;
#X restore 483 147 pd square;
#X obj 286 97 dac~;
#X obj 277 -10 noise~;
#X obj 288 69 lop~;
#X floatatom 323 43 5 0 0 0 - - -;
#N canvas 1100 364 450 300 ping 0;
#X obj 68 126 *~;
#X obj 68 96 osc~;
#X obj 109 112 vline~;
#N canvas 532 343 656 531 reverbwrapper 0;
#X obj 61 21 inlet~;
#X obj 128 24 inlet~;
#X obj 191 433 outlet~;
#X obj 264 429 outlet~;
#X obj 188 359 freeverb~;
#X msg 272 64 roomsize \$1;
#X msg 271 125 damping \$1;
#X msg 267 195 wet \$1;
#X msg 266 216 dry \$1;
#X msg 285 285 freeze \$1;
#X msg 285 325 bypass \$1;
#X obj 285 268 tgl 15 0 empty empty empty 17 7 0 10 -262144 -1 -1 0
1;
#X obj 285 308 tgl 15 0 empty empty empty 17 7 0 10 -262144 -1 -1 0
1;
#X obj 400 146 hsl 128 15 0 1 0 0 empty empty empty -2 -8 0 10 -4032
-1 -1 2794 1;
#X floatatom 396 177 5 0 0 0 - - -;
#X obj 327 199 expr 1-$f1;
#X obj 397 43 hsl 128 15 0 1 0 0 empty empty empty -2 -8 0 10 -4034
-1 -1 11189 1;
#X obj 399 100 hsl 128 15 0 1 0 0 empty empty empty -2 -8 0 10 -260097
-1 -1 1194 1;
#X floatatom 396 120 5 0 0 0 - - -;
#X floatatom 394 68 5 0 0 0 - - -;
#X text 376 274 Freeze the reverb;
#X text 376 334 the dry signal pass through.;
#X text 375 321 Trun the reverb off and let;
#X text 446 185 Wet signal to dry signal ratio;
#X text 446 201 (0 : all dry \, 1 : all wet);
#X text 446 66 Roomize;
#X msg 409 13 0.881;
#X msg 435 76 0.094;
#X text 447 120 0 level;
#X msg 431 122 0.22;
#X obj 409 -16 receive in;
#X obj 532 60 receive in;
#X obj 553 130 receive in;
#X connect 0 0 4 0;
#X connect 1 0 4 1;
#X connect 4 0 2 0;
#X connect 4 1 3 0;
#X connect 5 0 4 0;
#X connect 6 0 4 0;
#X connect 7 0 4 0;
#X connect 8 0 4 0;
#X connect 9 0 4 0;
#X connect 10 0 4 0;
#X connect 11 0 9 0;
#X connect 12 0 10 0;
#X connect 13 0 14 0;
#X connect 13 0 7 0;
#X connect 13 0 15 0;
#X connect 15 0 8 0;
#X connect 16 0 5 0;
#X connect 16 0 19 0;
#X connect 17 0 6 0;
#X connect 17 0 18 0;
#X connect 26 0 16 0;
#X connect 27 0 17 0;
#X connect 29 0 13 0;
#X connect 30 0 26 0;
#X connect 31 0 27 0;
#X connect 32 0 29 0;
#X restore 63 155 pd reverbwrapper;
#X obj 136 37 sel 1;
#X msg 109 83 0.4 0 50 \, 0 50 350;
#X obj 145 61 bng 15 250 50 0 empty empty empty 17 7 0 10 -262144 -1
-1;
#X obj 58 27 inlet;
#X obj 130 6 inlet;
#X obj 63 186 outlet~;
#X obj 152 186 outlet~;
#X connect 0 0 3 0;
#X connect 0 0 3 1;
#X connect 1 0 0 0;
#X connect 2 0 0 1;
#X connect 3 0 9 0;
#X connect 3 1 10 0;
#X connect 4 0 5 0;
#X connect 4 0 6 0;
#X connect 5 0 2 0;
#X connect 7 0 1 0;
#X connect 8 0 4 0;
#X restore 209 49 pd ping;
#X msg 200 9 220;
#N canvas 1098 369 450 300 ping 0;
#X obj 68 126 *~;
#X obj 68 96 osc~;
#X obj 109 112 vline~;
#N canvas 532 343 656 531 reverbwrapper 0;
#X obj 61 21 inlet~;
#X obj 128 24 inlet~;
#X obj 191 433 outlet~;
#X obj 264 429 outlet~;
#X obj 188 359 freeverb~;
#X msg 272 64 roomsize \$1;
#X msg 271 125 damping \$1;
#X msg 267 195 wet \$1;
#X msg 266 216 dry \$1;
#X msg 285 285 freeze \$1;
#X msg 285 325 bypass \$1;
#X obj 285 268 tgl 15 0 empty empty empty 17 7 0 10 -262144 -1 -1 0
1;
#X obj 285 308 tgl 15 0 empty empty empty 17 7 0 10 -262144 -1 -1 0
1;
#X obj 400 146 hsl 128 15 0 1 0 0 empty empty empty -2 -8 0 10 -4032
-1 -1 2794 1;
#X floatatom 396 177 5 0 0 0 - - -;
#X obj 327 199 expr 1-$f1;
#X obj 397 43 hsl 128 15 0 1 0 0 empty empty empty -2 -8 0 10 -4034
-1 -1 11189 1;
#X obj 399 100 hsl 128 15 0 1 0 0 empty empty empty -2 -8 0 10 -260097
-1 -1 1194 1;
#X floatatom 396 120 5 0 0 0 - - -;
#X floatatom 394 68 5 0 0 0 - - -;
#X text 376 274 Freeze the reverb;
#X text 376 334 the dry signal pass through.;
#X text 375 321 Trun the reverb off and let;
#X text 446 185 Wet signal to dry signal ratio;
#X text 446 201 (0 : all dry \, 1 : all wet);
#X text 446 66 Roomize;
#X msg 409 13 0.881;
#X msg 435 76 0.094;
#X text 447 120 0 level;
#X msg 431 122 0.22;
#X obj 409 -16 receive in;
#X obj 532 60 receive in;
#X obj 553 130 receive in;
#X connect 0 0 4 0;
#X connect 1 0 4 1;
#X connect 4 0 2 0;
#X connect 4 1 3 0;
#X connect 5 0 4 0;
#X connect 6 0 4 0;
#X connect 7 0 4 0;
#X connect 8 0 4 0;
#X connect 9 0 4 0;
#X connect 10 0 4 0;
#X connect 11 0 9 0;
#X connect 12 0 10 0;
#X connect 13 0 14 0;
#X connect 13 0 7 0;
#X connect 13 0 15 0;
#X connect 15 0 8 0;
#X connect 16 0 5 0;
#X connect 16 0 19 0;
#X connect 17 0 6 0;
#X connect 17 0 18 0;
#X connect 26 0 16 0;
#X connect 27 0 17 0;
#X connect 29 0 13 0;
#X connect 30 0 26 0;
#X connect 31 0 27 0;
#X connect 32 0 29 0;
#X restore 63 155 pd reverbwrapper;
#X obj 136 37 sel 1;
#X msg 109 83 0.4 0 50 \, 0 50 350;
#X obj 145 61 bng 15 250 50 0 empty empty empty 17 7 0 10 -262144 -1
-1;
#X obj 58 27 inlet;
#X obj 130 6 inlet;
#X obj 63 186 outlet~;
#X obj 152 186 outlet~;
#X connect 0 0 3 0;
#X connect 0 0 3 1;
#X connect 1 0 0 0;
#X connect 2 0 0 1;
#X connect 3 0 9 0;
#X connect 3 1 10 0;
#X connect 4 0 5 0;
#X connect 4 0 6 0;
#X connect 5 0 2 0;
#X connect 7 0 1 0;
#X connect 8 0 4 0;
#X restore 65 12 pd ping;
#X obj 205 87 dac~;
#X connect 0 0 10 0;
#X connect 1 0 24 1;
#X connect 3 0 0 0;
#X connect 4 0 22 1;
#X connect 5 0 20 0;
#X connect 6 0 17 0;
#X connect 7 0 5 1;
#X connect 9 0 24 0;
#X connect 10 0 1 0;
#X connect 10 1 4 0;
#X connect 10 2 7 0;
#X connect 10 3 13 0;
#X connect 10 4 14 0;
#X connect 13 0 15 0;
#X connect 14 0 16 0;
#X connect 15 0 11 0;
#X connect 16 0 12 0;
#X connect 19 0 5 0;
#X connect 20 0 18 0;
#X connect 20 0 18 1;
#X connect 21 0 20 1;
#X connect 22 0 25 0;
#X connect 22 1 25 1;
#X connect 23 0 22 0;
#X connect 24 0 8 0;
#X connect 24 1 8 1;
#X restore -49 -76 pd kinectin;
#X msg -467 -188 open 3;
#X connect 0 0 13 0;
#X connect 1 0 13 0;
#X connect 2 0 13 0;
#X connect 3 0 13 0;
#X connect 4 0 13 0;
#X connect 5 0 6 0;
#X connect 7 0 17 0;
#X connect 9 0 13 0;
#X connect 10 0 13 0;
#X connect 12 0 36 0;
#X connect 13 0 29 0;
#X connect 15 0 17 0;
#X connect 17 0 1 0;
#X connect 17 0 9 0;
#X connect 17 0 10 0;
#X connect 17 0 16 0;
#X connect 19 0 34 0;
#X connect 26 0 27 0;
#X connect 26 1 27 1;
#X connect 26 2 27 2;
#X connect 26 3 27 3;
#X connect 26 4 27 4;
#X connect 26 5 27 5;
#X connect 26 6 27 6;
#X connect 26 7 27 7;
#X connect 27 0 18 0;
#X connect 27 1 19 0;
#X connect 27 2 20 0;
#X connect 27 3 21 0;
#X connect 27 4 22 0;
#X connect 27 5 23 0;
#X connect 27 6 24 0;
#X connect 27 7 25 0;
#X connect 29 0 26 0;
#X connect 30 0 13 0;
#X connect 33 0 31 0;
#X connect 33 0 32 0;
#X connect 34 0 33 0;
#X connect 36 0 13 0;
